<mxfile host="Electron" agent="Mozilla/5.0 (Windows NT 10.0; Win64; x64) AppleWebKit/537.36 (KHTML, like Gecko) draw.io/26.0.9 Chrome/128.0.6613.186 Electron/32.2.5 Safari/537.36" version="26.0.9">
  <diagram id="Ht1M8jgEwFfnCIfOTk4-" name="Page-1">
    <mxGraphModel dx="1709" dy="1031" grid="1" gridSize="10" guides="1" tooltips="1" connect="1" arrows="1" fold="1" page="1" pageScale="1" pageWidth="1169" pageHeight="827" math="0" shadow="0">
      <root>
        <mxCell id="0" />
        <mxCell id="1" parent="0" />
        <mxCell id="NEgBLdi5jCg0mNSVGGYL-1" value="VPC" style="sketch=0;outlineConnect=0;gradientColor=none;html=1;whiteSpace=wrap;fontSize=12;fontStyle=0;shape=mxgraph.aws4.group;grIcon=mxgraph.aws4.group_vpc;strokeColor=#879196;fillColor=none;verticalAlign=top;align=left;spacingLeft=30;fontColor=#879196;dashed=0;" vertex="1" parent="1">
          <mxGeometry x="60" y="40" width="1040" height="500" as="geometry" />
        </mxCell>
        <mxCell id="NEgBLdi5jCg0mNSVGGYL-6" value="Subnet" style="sketch=0;outlineConnect=0;gradientColor=none;html=1;whiteSpace=wrap;fontSize=12;fontStyle=0;shape=mxgraph.aws4.group;grIcon=mxgraph.aws4.group_subnet;strokeColor=#879196;fillColor=none;verticalAlign=top;align=left;spacingLeft=30;fontColor=#879196;dashed=0;" vertex="1" parent="1">
          <mxGeometry x="100.01" y="80" width="320" height="320" as="geometry" />
        </mxCell>
        <mxCell id="NEgBLdi5jCg0mNSVGGYL-56" style="edgeStyle=none;curved=1;rounded=0;orthogonalLoop=1;jettySize=auto;html=1;fontSize=12;startSize=8;endSize=8;fillColor=#f8cecc;gradientColor=#ea6b66;strokeColor=#b85450;" edge="1" parent="1">
          <mxGeometry relative="1" as="geometry">
            <mxPoint x="599" y="510.0007970849465" as="sourcePoint" />
            <mxPoint x="599" y="480" as="targetPoint" />
          </mxGeometry>
        </mxCell>
        <mxCell id="NEgBLdi5jCg0mNSVGGYL-86" style="edgeStyle=none;curved=1;rounded=0;orthogonalLoop=1;jettySize=auto;html=1;fontSize=12;startSize=8;endSize=8;fillColor=#d5e8d4;gradientColor=#97d077;strokeColor=#82b366;" edge="1" parent="1" source="NEgBLdi5jCg0mNSVGGYL-8">
          <mxGeometry relative="1" as="geometry">
            <mxPoint x="490" y="620" as="targetPoint" />
          </mxGeometry>
        </mxCell>
        <mxCell id="NEgBLdi5jCg0mNSVGGYL-8" value="" style="sketch=0;outlineConnect=0;fontColor=#232F3E;gradientColor=none;fillColor=#8C4FFF;strokeColor=none;dashed=0;verticalLabelPosition=bottom;verticalAlign=top;align=center;html=1;fontSize=12;fontStyle=0;aspect=fixed;pointerEvents=1;shape=mxgraph.aws4.internet_gateway;" vertex="1" parent="1">
          <mxGeometry x="545" y="510" width="70" height="70" as="geometry" />
        </mxCell>
        <mxCell id="NEgBLdi5jCg0mNSVGGYL-9" value="" style="points=[];aspect=fixed;html=1;align=center;shadow=0;dashed=0;fillColor=#FF6A00;strokeColor=none;shape=mxgraph.alibaba_cloud.route_table;" vertex="1" parent="1">
          <mxGeometry x="548.35" y="400" width="63.3" height="80" as="geometry" />
        </mxCell>
        <mxCell id="NEgBLdi5jCg0mNSVGGYL-10" value="Security Group" style="fontStyle=0;verticalAlign=top;align=center;spacingTop=-2;fillColor=none;rounded=0;whiteSpace=wrap;html=1;strokeColor=#FF0000;strokeWidth=2;dashed=1;container=1;collapsible=0;expand=0;recursiveResize=0;" vertex="1" parent="1">
          <mxGeometry x="160.01" y="140" width="200" height="200" as="geometry" />
        </mxCell>
        <mxCell id="NEgBLdi5jCg0mNSVGGYL-14" value="Network Interface" style="fontStyle=0;verticalAlign=top;align=center;spacingTop=-2;fillColor=none;rounded=0;whiteSpace=wrap;html=1;strokeColor=#0066CC;strokeWidth=2;dashed=1;container=1;collapsible=0;expand=0;recursiveResize=0;" vertex="1" parent="1">
          <mxGeometry x="130.01" y="110" width="260" height="270" as="geometry" />
        </mxCell>
        <mxCell id="NEgBLdi5jCg0mNSVGGYL-19" value="Amazon EC2" style="sketch=0;outlineConnect=0;fontColor=#232F3E;gradientColor=none;strokeColor=#ffffff;fillColor=#232F3E;dashed=0;verticalLabelPosition=middle;verticalAlign=bottom;align=center;html=1;whiteSpace=wrap;fontSize=10;fontStyle=1;spacing=3;shape=mxgraph.aws4.productIcon;prIcon=mxgraph.aws4.ec2;" vertex="1" parent="NEgBLdi5jCg0mNSVGGYL-14">
          <mxGeometry x="85.49000000000001" y="60" width="80" height="100" as="geometry" />
        </mxCell>
        <mxCell id="NEgBLdi5jCg0mNSVGGYL-66" style="edgeStyle=none;curved=1;rounded=0;orthogonalLoop=1;jettySize=auto;html=1;fontSize=12;startSize=8;endSize=8;fillColor=#d5e8d4;gradientColor=#97d077;strokeColor=#82b366;startArrow=classic;startFill=1;endArrow=none;" edge="1" parent="NEgBLdi5jCg0mNSVGGYL-14">
          <mxGeometry relative="1" as="geometry">
            <mxPoint x="129.99" y="301" as="sourcePoint" />
            <mxPoint x="130.61" y="163" as="targetPoint" />
          </mxGeometry>
        </mxCell>
        <mxCell id="NEgBLdi5jCg0mNSVGGYL-73" value="" style="shape=rect;aspect=fixed;resizable=0;labelPosition=center;verticalLabelPosition=bottom;align=center;verticalAlign=top;fontSize=14;" vertex="1" parent="NEgBLdi5jCg0mNSVGGYL-14">
          <mxGeometry x="157.99" y="83" width="48" height="48" as="geometry" />
        </mxCell>
        <mxCell id="NEgBLdi5jCg0mNSVGGYL-74" value="&amp;nbsp; &amp;nbsp; &amp;nbsp; &amp;nbsp; &amp;nbsp;&lt;div&gt;&amp;nbsp; &amp;nbsp; &amp;nbsp; &amp;nbsp; &amp;nbsp; &amp;nbsp;Ansible&lt;/div&gt;" style="fillColor=#ffffff;strokeColor=none;dashed=0;outlineConnect=0;html=1;labelPosition=center;verticalLabelPosition=bottom;verticalAlign=top;part=1;movable=0;resizable=0;rotatable=0;shape=mxgraph.ibm_cloud.logo--ansible-community" vertex="1" parent="NEgBLdi5jCg0mNSVGGYL-73">
          <mxGeometry width="24" height="24" relative="1" as="geometry">
            <mxPoint x="12" y="12" as="offset" />
          </mxGeometry>
        </mxCell>
        <mxCell id="NEgBLdi5jCg0mNSVGGYL-16" value="Subnet" style="sketch=0;outlineConnect=0;gradientColor=none;html=1;whiteSpace=wrap;fontSize=12;fontStyle=0;shape=mxgraph.aws4.group;grIcon=mxgraph.aws4.group_subnet;strokeColor=#879196;fillColor=none;verticalAlign=top;align=left;spacingLeft=30;fontColor=#879196;dashed=0;" vertex="1" parent="1">
          <mxGeometry x="740" y="80" width="320" height="320" as="geometry" />
        </mxCell>
        <mxCell id="NEgBLdi5jCg0mNSVGGYL-17" value="Security Group" style="fontStyle=0;verticalAlign=top;align=center;spacingTop=-2;fillColor=none;rounded=0;whiteSpace=wrap;html=1;strokeColor=#FF0000;strokeWidth=2;dashed=1;container=1;collapsible=0;expand=0;recursiveResize=0;" vertex="1" parent="1">
          <mxGeometry x="800" y="140" width="200" height="200" as="geometry" />
        </mxCell>
        <mxCell id="NEgBLdi5jCg0mNSVGGYL-18" value="Network Interface" style="fontStyle=0;verticalAlign=top;align=center;spacingTop=-2;fillColor=none;rounded=0;whiteSpace=wrap;html=1;strokeColor=#0066CC;strokeWidth=2;dashed=1;container=1;collapsible=0;expand=0;recursiveResize=0;" vertex="1" parent="1">
          <mxGeometry x="770" y="110" width="260" height="270" as="geometry" />
        </mxCell>
        <mxCell id="NEgBLdi5jCg0mNSVGGYL-20" value="Amazon EC2" style="sketch=0;outlineConnect=0;fontColor=#232F3E;gradientColor=none;strokeColor=#ffffff;fillColor=#232F3E;dashed=0;verticalLabelPosition=middle;verticalAlign=bottom;align=center;html=1;whiteSpace=wrap;fontSize=10;fontStyle=1;spacing=3;shape=mxgraph.aws4.productIcon;prIcon=mxgraph.aws4.ec2;" vertex="1" parent="NEgBLdi5jCg0mNSVGGYL-18">
          <mxGeometry x="90" y="60" width="80" height="100" as="geometry" />
        </mxCell>
        <mxCell id="NEgBLdi5jCg0mNSVGGYL-27" value="" style="image;sketch=0;aspect=fixed;html=1;points=[];align=center;fontSize=12;image=img/lib/mscae/Docker.svg;" vertex="1" parent="NEgBLdi5jCg0mNSVGGYL-18">
          <mxGeometry x="140" y="130" width="73.17" height="60" as="geometry" />
        </mxCell>
        <mxCell id="NEgBLdi5jCg0mNSVGGYL-71" style="edgeStyle=none;curved=1;rounded=0;orthogonalLoop=1;jettySize=auto;html=1;fontSize=12;startSize=8;endSize=8;fillColor=#f8cecc;gradientColor=#ea6b66;strokeColor=#b85450;startArrow=none;startFill=0;endArrow=classic;endFill=1;" edge="1" parent="NEgBLdi5jCg0mNSVGGYL-18">
          <mxGeometry relative="1" as="geometry">
            <mxPoint x="142.9978688524592" y="310" as="sourcePoint" />
            <mxPoint x="143.62" y="167" as="targetPoint" />
          </mxGeometry>
        </mxCell>
        <mxCell id="NEgBLdi5jCg0mNSVGGYL-72" style="edgeStyle=none;curved=1;rounded=0;orthogonalLoop=1;jettySize=auto;html=1;fontSize=12;startSize=8;endSize=8;fillColor=#d5e8d4;gradientColor=#97d077;strokeColor=#82b366;endArrow=none;startFill=1;startArrow=classic;" edge="1" parent="NEgBLdi5jCg0mNSVGGYL-18">
          <mxGeometry relative="1" as="geometry">
            <mxPoint x="113.99786885245919" y="309" as="sourcePoint" />
            <mxPoint x="114.62" y="166" as="targetPoint" />
          </mxGeometry>
        </mxCell>
        <mxCell id="NEgBLdi5jCg0mNSVGGYL-77" value="" style="shape=image;imageAspect=0;aspect=fixed;verticalLabelPosition=bottom;verticalAlign=top;image=data:image/png,iVBORw0KGgoAAAANSUhEUgAAAMAAAADACAYAAABS3GwHAAABhGlDQ1BJQ0MgcHJvZmlsZQAAKJF9kT1Iw0AcxV9TpSIVByuoOGSogmAXFXGsVShChVArtOpgcumH0KQhSXFxFFwLDn4sVh1cnHV1cBUEwQ8QZwcnRRcp8X9JoUWMB8f9eHfvcfcOEOplplkdcUDTbTOdTIjZ3IoYekUIg+iHiDGZWcasJKXgO77uEeDrXYxn+Z/7c/SoeYsBAZE4zgzTJl4nnt60Dc77xBFWklXic+Jxky5I/Mh1xeM3zkWXBZ4ZMTPpOeIIsVhsY6WNWcnUiKeIo6qmU76Q9VjlvMVZK1dZ8578heG8vrzEdZrDSGIBi5CoIwVVbKAMGzFadVIspGk/4eMfcv0SuRRybYCRYx4VaJBdP/gf/O7WKkxOeEnhBND54jgfI0BoF2jUHOf72HEaJ0DwGbjSW/5KHZj5JL3W0qJHQO82cHHd0pQ94HIHGHgyZFN2pSBNoVAA3s/om3JA3y3Qver11tzH6QOQoa5SN8DBITBapOw1n3d3tff275lmfz/Yk3LPttuvigAAAAZiS0dEAP8A/wD/oL2nkwAAAAlwSFlzAAAN1wAADdcBQiibeAAAAAd0SU1FB+gHGRUhBDjtRysAABuESURBVHja7Z15mJTVne8/p/aqru6m6QUaGkFRdoIsCoqyGYK4MrlxyTWiMaMzc2P0zsRMjDNjZv7IzPXG5CYaZ+7cexPjFsA1DoqyIwqoLA7KFkBkp+kN6O7qrvU994/uhu6ml1rerarO93l4aKr6FPWe8/28v98571kEBklKWQBcD0wBRrf/KQdKgALAg5LSBUWBEHAGqAX2AX8CdgAfCSFCRvynQmfTVwLfBr4JXA24Vbsq6aAY8AnwJrBECFFtKwCklHOBx4AFgFO1l5KBSgDvA08LITZYCoCU8uvAPwHXqnZRskCbgCeFEOtMBaA91XkKuFe1gZIN9A7w34QQxwwHQEp5N/DvQJGqdyUb6RzwoBDitVQKOVIwvk9K+b+BJcr8SjZUMfCqlPI5KaVX1wggpQy298Dnq3pWygJtABYJIc5lDICUsgJYCVyp6lUpi/QZcKMQoiZtAKSURcB62h5mKSllm74AZgkhzqbcB5BS+oC3lfmVslgTgTf66hP01Qn+NTBH1aFSlmse8IuUUiAp5Z3AMlV3Sjmke4QQf+gXACnlUGAPaqhTKbd0DhgrhDjVXwr0S2V+pRxUMfB0nxGgfW7PalVXSjmsuZ0n0XUH4CNgpqojpRzWFiHEtRelQO1TmpX5lXJd10gpZ3X8w9XpjcdU3WSu+qjG7qY4+5vjnIpo1EY06mIapyMJaqMadVGNsAYIeVEi6hZQ5nVQ6haUeZxUeB2UexyUeRyMKXAxNujmEp9abqGDfgRsPF/1UspBwPFuQCj1IU3CznNxtjRE2dUUZ19TnN1NcWqiWidjy557WyKZ92W33237q9AlGBt0MT7oZmyBi+nFHqYXe/A6hGqU5BUHqoQQpzsAeAz4uaqXvnUolGBNTZQ1NVHW1Uapj2oXzCp6GVowAILu5VwOmFTo4esDvXy91Md1Azz4FBD96b8LIX4tVOe3d0U1ycrTUV49FmFFdZSGWKJvs6YCQdKQyJTL+ZyCOSUe7hoUYFGFnwEuh2rMi7VRCDFbtO/e0IDapQGAhIQt9TFeOx5mydEItREtNbPaBIKOcl6HYH6pjzsq/Cwq91OkYDh/fwMGCinlAtoWGed3etOc4DcHW3nxqwj1MS2DtMZ+EHT87HcIFlX4eWRYITOK1P0O+IaQUj4B/Cxfa+Cj2hjP7G/lreMR4mRo5iyAoOPvqYUeHhkW5NuDArhF3vYXHhdSyheAxfmV28NLX4V5Zn+Yz8/G+jBrbkMAUOV18v2qIA8NCTLQnXfp0fNCSvkxMD0frlYCrx+N8MTOFg42JTqZROY1BABBl+D7Q4P83YgiCp15A8IWIaU8DAzP9StdcyrGj/8zxI6GeC+mVBAgYKjXwZMjinmgMogr9zOjQ0JKWQ8MzNUr/LQuzo8/a2HD6VhXcygIeoUAJOMK3PyPkQO4tdSfywDUCSllhBwcAm2OS574rIXn/hRGk72YQ0HQJwQAt5f7eWFMKcW5OXwaEVJKmWtXtepkjL/4OMTh5kT/plMQ9AvBtCIPGycPwp+DT5dzCuszUcl3N4VYsLqJw81aWyvKbr3g8z+LHl7r1Pq9liO5z9WjXCqfq3u5C+9va4zyk0NnczIHypkIsOpkjPs+DFHdqvVwR5MqEmQYCXwOwZFrhlDhya3ZqFkfASTw1BdhblrV3Gb+Hu9oKhJkGgnCmmTd2UjORYCsnv7cEJHc+0GIFSdiFwzbcafr6Pie7wALkJ3uvJ07xrK9XJfXkikHiCQ+V49yqXwuUudybe/vCcVUH8Au2lGfYNp/NLLieCyFO6iKBJlEglx8LJCVACz5MsrM5U181ailYR4FQbrlxgTcCgCr9ezuCN/Z0EI4QR9mVRDoDYHPIZhX4lUAWKl/3B7mkc2tbQ+2emqovhoZBUEm5R4aEmSQJ/fWI2fFMKgm4dHNrfxmT+TiobyehvGSGQJUQ6RJl5tS6OHDaRUEnEIBYLbCCXjggxaWHIz1bo5UIEjZzPkNwbigm3VTy3Ly7m97ABIS7lrTwhuHYv2bTkGgOwSjC1ysn1pOpTd3t2KxbR9AAg990Npm/mRy8FT6BCnn9vnXJxgdyH3z2xqAH24O87t90dRMpyDQBYLRBS7WT8t989sWgCc/jfC/dkb7MbOCwAgIxuSR+W3ZB/jXXVG+vzGcQm6v+gR69QnGBV2su7qcQZ78WRtsKwC2VCeY88cQ53cXVBCYBsGYAhfrppflzZ3fdinQ6RbJHe+3Ek2kk9aodCiTdGhMgTsvzW8bAOIa3Pl+KydCMgMzKwjSgWBM0MW66aV5aX7bAPDDTRE2nkzoYGYFQSoQtKU9+Wt+W/QBlh2Ic/f7rTrn9vboExR6BJMGuBgZdDAi6GBEgZMhfgd+pyDgEgxwCxISmuJtZRuiGqfCGsdbE5xo1djXlGDnuVjbLtQ69wnGFzlZN6OMCk9+7xVqKQDVLZLxr4RoCBthZvMhGFYgWDDEw5xBbqYOdDGq0Ike68hPtGrsOBtjXU2UtbVRdjXGOwW11CGYUOhi7YxSKrxqo1xLAfjWijBvHIz3v4e+jSEYV+zkO5d5ua3Kw/gB5qQSNRGNP56MsPR4mI31URIyeQgmFLpYe4355t/fEmfdmTCHwwlcQnJVkZd5JV7Ld6GzDIDXDsS5c0U4yYMi7AVBoVtw/0gP9430MrXU2lWlp8IafzgW5rlDIb5qTfR5HbcN9vH7ycWUmLgH6IlIgr/ad4Z36lu7dI1AUuJy8JMRRfywqgirdlyxBID6sGT8Sy2cbuk+McveEFT6HfxgrJe/HO2jxGOvqcGahOXVEZ49FGJ9XbTLZmBTB7h55LIA9w7zm7qscVtjlJv/s46ajoNFenkI962KAEvHlWHFbGtLAPjO+2Fe2RdP48ggayAo8cITX/Pz8FgvviyYE38qrPF5YwwpYWTQxRUF5o/yfHouyoLP6jgbT/TaEe9c909eWsw/jSjOfQA2HE8w9/Vw36azCQRuJzw81sffT/Ix0KvO3EpWn5yLsmBHHefiWtL7DrmFYNfVlYwKmJtSmtoDkcATH0X7H5fvcwy8vazBzwkmljjZfHMRv7zar8yfgrY3RlnYYf7e2qSH5xoxKS3Zfc5UAF7fH2fLKS05s1oEgcsBP73Sx/bbi5hWps7kTUVbzkaZt62OMzEtrc233qptYcs5czffMi0Fimsw8cVW9jVo/a9SsigdKvcJlswr4IYh6rjkVLX5bJSF2+tojMuMtmGcUeRh89RBpnXWTYsA/+fzeJv5e6Hf6kgwrczJ1kWFyvzpmn9bu/n7bbO+I8HHjVHermvNrQgQisHlv22lOpTi3cGkSPCty9y8PLcAr8p4UtZHZ6LctK2OpkRPdZxeJBhT4GbX1YNNGRY1JQI8vytOdXMadwcTIsHiUV6WzFPmT0ebzkS5aVt921wmHZdl7gvFeKuuJTdSIE3CsztiKZjZPAj+ZqKX38/xo86OTl0bG6Lc+Gk9TTGJEdsw/upoc24A8O6hBPsbZIpmNh6C+0Z5ePoaH2qAM420pyHKzVvraU7IJHP71CHYdC7CJ43R7AfgV9viaZrZOAj+7FI3v53jV+ZPQx82RFm4tZ7mzmmPQRD8+lhTdgPwea3GuiNaBmbWH4LrBjtZOj+AU7k/Za2ri3LjJw00x0hzlCc1CF6vaeV4JJG9ADyzPa6DmfWDoNIvePUbATwq509Z6+ui3PppAy2JTIc6ky8X0yTPHW/OTgDCcXh9n6aTmTOHwO2AVxcEqAyoW3+qOtyS4Jtbz7SZ3+RdqV88FWqb2ZptALx3KMG5iNTRzJlB8NNpXq6rVGOd6ehHexo523l6g4kQnIwk+NDAs8kMA2DZ3kS/x2+aBcHUcic/nuJVTk5DJ8Mab52M9DKgYA4ES0+3ZBcAoRi8c1Dr48LNg8DjhOdv8Kmx/jS1oS5KQmLpIR1v1LQQl1kEwPIDCULR/i7cHAj+epKHiaXK/enqROdllhZBUBvVWNsQzh4AXt2b2lxwoyAo8wt+Ms2jXJyBitzCFsc1GZUG6Q5AXIO1hxMpXLhxEDx5lYdijxr1yUQzB3qSM6vBEKyoCyOzAYAd1RqNEdJaEKEnBJcUCv5yorr7Z6oJRS6uKnFbDkFNRDPkoG7dAVh3WKZ54fpC8NdXenCr1F8X/eDSQC91by4EGxoi9gdg/REtowURekBQ7BU8MF4tbNFLd1X5GNx5Iy2LINhwxuYAxDTYdEzL8MIzh+DB8S6KVO6vmzwOwYMjApafY7yhIaJ7P0BXAD49obUPf2IpBPePcyvX6qx7hvmw+uC+uqjGF80x+wKw/ZTU8cLTg2BqhYPxatxfd40Oupg8wGU5BFvORu0LwO5aqfOFpw7BvWNV7m9YX2Cor/0n6yDYbecIsLtWGnDhqUFw62UKAKN062BvaoeGGADBHjsDsLfWmPWhyUIwqsTBZcWq82uUxhW5GOJzWArBnuaEPQE42SRpaMWQpXHJQnDjCDXd2WjNKev+ZNhcCE5FEjTENPsBcD79wToI5lQpAIzW3HJPD21jLgR7muP2A+DLBgxfJN0fBFMHqdEfo9U2EoSlEOzTcUqEbo65sPGVNRCU+QWXFKn832hNKHbhElgKQXXEhilQbYi0e/Z6QDC5Qt39zZDXIRgVdPdhZuMhqI3aEIDTIUxZJN3b+1eUqLu/Wboi6OzHzMZCUKvjVim6AVATMm+7jJ7eH67SH9M01O9IwszGQWDLCFDTrIeZ04dgeJFKgUwDwOdI0szGQFAblfYDoL7F/D1jOr8/uEBFALNU6XemYGb9IbBlBOg4DNAqCIJqAqhpCjhTNbO+EIQTNowAUve0JrVyQTX/39SRoNTNbEA6ZCcAMu3ZZ1ouoObAmSa/M10z2w8C/SKAJiyFICGVMc2VxRDYDQDN4t3DogllSbPUFJMX6j7LITAgBbIGgta4CgFmKdT9ZJgshkA3AAo91kLQFFXGNDUCdG8zEyHQ83wH3T6qLGDtFnonm1QEMEsnWno5Cd4kCMp0JEA/AAp07NmnAcEJBYBpOtqS6L3NTICg3I4AlPp1yOcygOB4kzKmaQCEtL7bzGAI7BkBAtZul7GvTlPONEn7m7Q+2tp4CMrdNgSgvEDHnn0aEOysUSmQWXf/mrDWT1sbC0G514YADCkUGfXsM4XgRJOkvlVBYLS2N8STNKtxEFR4nfYDYEw5lu8Zs71aAWC0tjbEUjCrMRCMKnDZD4CxFSKjnr0eEKw/rPoBRmvtqVgPbWMuBOMLbQjAoGCnkSCLIFirADBU9RHJti4pkPkQDHA5qPTZsA9wPgpYuF3GjlOSM2FlVKO0+lQUTetjczITIBhfpO+0X10BGFeRfs9eDwgSGry9X82KM0pvHot2bRMLIBhXaGMAxldYt1NAx+vLdqs0yAidjUqWH4td3CYmQzAu6LQvANeNEJZul4GENV9pF3aoUNJNrx6JtC1F7KlNTIRgxkCPfQGYVAkD/FgKQTwBS/eoKKC3fncg0nebmQBB0CmYOsBtXwCcjvYogLUQPPtpom2BjpIu+qgmzid1if7bzGAIrit1637yp+4LYmZfmnrPXm8IDjZI3juoooBeenpXOPk2MxCC2WX6n/usOwBzLhPWLpJur9Bnt6rRID2071yC5cejqbWZQRBkBQCTh0CRD8shWHNIclp1hjPWT7a3XkgnLYQg6HQwrcRtfwCcDrhljEh5eEtvCBIa7DytAMhEG6vj/PFoNA0z6w/B/EEe3fN/QwAAuGtSOmbWH4JoXJk4XWkSHtvamoGZ9YXgziqvIddpCAA3jhaU+KyHYORAtVtcunpmT4StdfEMzawPBAGn4JbKLALA44Tbxlm7XcaIYsHoUgVAOvqqSeMfdrTqZObMIbhliIegS2QPAG1pkMDKPWMeu9aBQ/k/rdTn/o0hmmNSRzNnBsGdVT7DrtcwAL5+Rcf0aPMhmHWJg7+Yqk6MTEdP7gizsTpugJnTKxd0Cm6q9GQfAG4nLJ6G6XvGTBosePMuFy51XkbKevtIjH/+LEyf5zGbDMFdl3jbNuPNNgAAHr5W4HSYB8GkwYI1i12UBpSZU9Xeswnu+6Cl0zb39oDgkSv8hl63oQBcVgq3jet7eEsvCK4cLFhzn4syZf6UdSKksfC9EOci/Rx2bjIEcyvcfG2AK3sBAHj0OtHr8JZeEFw52MGa+5X501FdWDL/3RBHmrTeR2IsguDR0X7Dr99wAGaPhCsru7+qHwRThgjWftep0p40zX/jihB7z3bb58cGEFwadHHLEG/2AwDw6PV6rhW+UG5ypWDVfU4G+pWZU9XJkMbc5SG21yZ6bhOLIXj4Ch9OE4axTQHgv05p6w/oCcG0IYK1D6g7fzra3aAx/c0Qu+oTfZvVIggqfA4eHOkzpS5MAcDjhJ8tFBmP8nROe1Z+10mJuvOnrP84HGfmWyGOh2RyZrUAgr+f4KfQLXIHAGibIDdtGBlDMHWoYPUDDpX2pKiEhMe3RFi0ooVzUZmEma2BYESBk4cu95lWL6YBIAQ8fUtmQ53K/Onp4DmNeX8M8dRnkR6Os7UXBD+7MtD1GNZcAaBjRGjBKNKCYOoQwervOVTak4LiGjy1I8rEJSE2nuxlS3MbQfC1Eid3D/eaWkemTxh46hbR9T9NAoJrh8O6h5T5U9H7R+JMXhbi8c0RwvF+bjA2geDnkwtMn8AopJSmL5v6uxXwz2vl+bqjUz1eeK3t/Zkj4L0HHBSae2OgJiRZcVByolHic8M1VYJrqhzYfYLpjhqNxzdHWH0s3q0+L67bnuteJlfuovf7KgeIvj/37ku9LLk+aHp9WQJAXIMHX4Xfb+0bgoVjYNk9wlTzn2qW/O3qBK/t1ohoXb/bqFJ4+Con909ydj0V02JJYOWRBL/YEWXNsURXw2UBBGVewZ7biyn3OfIDgA69tB3+caXkUEPXCqkqhh/NETw8E1ND4qajkjtei3OquS/zSIq8sHiSk3smOJg+1LqocDIk+cO+OM/vjrHnjNaDmbMDgpevD3LPZdbcUSwFoEO7q2HP6baRosvLYMJgTJ/OvPpLye1L47TGkjHPhUYcMUBw93gHt1zhYPoQh+Hf+3CjZOXhBG8djLPmaIIE/ZjO5hDcVOXm3RsKLfOeLQCwWqu/lNy+pN38PTVUMo0sIOhpW4wze7hgyiAHkwYJygPpx4e4BnsbNLZVa2w7rbH2aII/ddzpUzGdTSEocgt2LSpmWIFDAWCVVh2ULOpu/gwg6F6uMii4fKBgWJGgMiioKoSAG5wOQZGn7RPORiQtMQjF4ESz5EijxpFGyaFzGq3xVMycXRC8OCvAvSO9lrZ/XgOw6qBk0R8StMZlH6NRmUPQa7le746ZmFknCFIyc+rl/mqMl3+9xvqJXHkLwHnz95XzKwgMgeDqchcbbyrEa4Nl2468Nf8rCVqjnccSzTnR/qJy/W0L0uPrKX6fpMt1+04pPfRKrtxAr2DZ3AJbmD8vAVh1QHL7S53u/FJBYBYEDgGvzC5gRNA+tssrAFYekNz+skY4bt2J9vkMwVNXBbixym0rT+QNAKsOSBa9pBGO9dBQCgLDIfjBeC+PTfTazhd50Qleub/d/HF6nXPUc8dQdYz16Bjfe4WHF+YEbDmPypEX5n9RXpgRaeE5xvkYCW67xM3vZgVsO4kwpyPARebv846uIoHekWDOUBfvLSzAZ+NdKnM2Arz3J8miF2SnnB/Lj3DNp0gwq9LF298I2Nr8ORsBdp6Cmc9phGLp3NFVJMg0Etw63M2y+X78Lvtvz51zEUBKWLxUEopaez5BvkaCB8Z4eHNBICvMn5MArNwPn5/M1MwKgnQgeHyyl/83x59VO3PnHABrD0idzKwgSBYCp4BfXuvjX2Z4ybYzSVy5BsDhhvYGEp3+RrTlRqJTA4pOjSxk19czLtfL++d/bv/ldMr1+n16+Nwu3y2F75N0OSjzOXh5vo8Fl2SnlXIuAnicet/RVSTordyMQU523FWQtebPSQAmDzXCzAqC7uUeGu/mgz8LMCyY3Qex5RwAiybQdVfhbIGA7ICgyCNYssDPv8/1XYi2CgD76PIyeODqvjaAsikE0v4Q3HKpi933FHD3qNzpOubkg7DWGMz7N/j4SHKbb130flvNGFCODB56WfewrKJA8OvZ3pwyfmcAIoAnFyF45C347aeyy41MQZAaBIvHOvnlbC+lvpw8dDkipJT1wEByVFuPwd8ul2w4pCBIBYIpFQ7+5/Uebrgkp89brhNSysPAcHJca/bDD5dLPj+lIOgLguFFgieu9vDnE12mb1RrgQ4JKeUWYAZ5oIQGv9vath3jyUYFQefXhxQK/mGGm+9NdOHOn4Wym4WU8gVgMXmkSBxe2QG/+lDyRXV+QzCyRPDwZDcPfc1FwE2+6XkhpXwC+Bl5qo++gqfWS97d13nUL/chmFnl4NGpLr45ymnKaYw21eNCSrkAeJ88194a+M0mybKdUN+SmxAUeuA7E1z8YIqLsaUCJeYLKWUAOEMODoWm20/YchRe2i5ZulPSGMluCPxuuGGEgzvGOPkvo50UuFUbtysKlLRVq5QfAtepOumqcBze3StZ9jmsPShpaMkOCIIeuOlyJ3eOdXDTSCd+l2rLHvSBEGJOBwB/A/xC1UnfOtQAaw5I1hyENQclZ1rtAUHQCzOGOphZJbhumINZlzhyYp6OwXpUCPFMBwCDgOPk4PoAI1Ol7Sdg+wnJF6cle2tg12lJXYuxEJT6YVyFYGyZYHyFYGaVgysHi3zuyKajOFAlhDh9oZmkfAe4WdVNZqppbgPhywaoboa6kKQ2JDkdgppQ27+7nj12weQBj6DUD2UFbfNvSgNQFoDBQcGYMhhf4aA8oOpYBy0XQtzW9T4l5RxgvaobpTzQLCHEh90DruoMK+VN57fjH90fev9U1Y9SDksCT3Z+oQsAQoh1wFJVT0o5qpeFEBvpZUyiIw2qBPYCxaq+lHJIZ4GxQojqXiNAexQ4BTyo6kspx/Tn3c3fIwDtELwG/JuqM6Uc0TNCiDd69HqvvQUpvcAKYJ6qP6Us1hrgZiFENCUA2iEoBDYAU1Q9KmWhPqdtzP9cb7/Q59ofIUQTsBD4TNWlUpZpOzC/L/P3C0A7BDXALGCVqlOlLNE6YF67d8kIgHYImoHbgOdU3SrZXM8CC4UQjUl5O9VPl1LeAfxf1HMCJXvpLPA9IcSbqRRKef1/+xDpGOAlum6ep6Rkld4BJqZq/rQAaIegWgixmLYh0g9V/StZpI3AbCHErUKI42l5WY9vIaWcBfwIuBG1qEbJWMWB94Cfd0xpzkS6riOSUlYA3wa+CUwHvKq9lHRQBPgYeBNYmszojiUAdIMhAMwEpgKj2vsNg4ABQBC1C4VSV0WB5vbO7GlgH7CftvH8TUKIFiP+0/8PfrwyZool5f4AAAAASUVORK5CYII=;" vertex="1" parent="NEgBLdi5jCg0mNSVGGYL-18">
          <mxGeometry x="180" y="90" width="40" height="40" as="geometry" />
        </mxCell>
        <mxCell id="NEgBLdi5jCg0mNSVGGYL-84" style="edgeStyle=none;curved=1;rounded=0;orthogonalLoop=1;jettySize=auto;html=1;fontSize=12;startSize=8;endSize=8;fillColor=#f8cecc;gradientColor=#ea6b66;strokeColor=#b85450;" edge="1" parent="1" source="NEgBLdi5jCg0mNSVGGYL-22" target="NEgBLdi5jCg0mNSVGGYL-8">
          <mxGeometry relative="1" as="geometry" />
        </mxCell>
        <mxCell id="NEgBLdi5jCg0mNSVGGYL-22" value="Client" style="sketch=0;outlineConnect=0;dashed=0;verticalLabelPosition=bottom;verticalAlign=top;align=center;html=1;fontSize=12;fontStyle=0;aspect=fixed;shape=mxgraph.aws4.resourceIcon;resIcon=mxgraph.aws4.client;" vertex="1" parent="1">
          <mxGeometry x="670" y="620" width="90" height="90" as="geometry" />
        </mxCell>
        <mxCell id="NEgBLdi5jCg0mNSVGGYL-34" value="" style="points=[];aspect=fixed;html=1;align=center;shadow=0;dashed=0;fillColor=#FF6A00;strokeColor=none;shape=mxgraph.alibaba_cloud.network_acl_access_control_list;" vertex="1" parent="1">
          <mxGeometry x="229.63" y="414" width="60.08" height="54" as="geometry" />
        </mxCell>
        <mxCell id="NEgBLdi5jCg0mNSVGGYL-57" value="" style="points=[];aspect=fixed;html=1;align=center;shadow=0;dashed=0;fillColor=#FF6A00;strokeColor=none;shape=mxgraph.alibaba_cloud.network_acl_access_control_list;" vertex="1" parent="1">
          <mxGeometry x="869.96" y="418" width="60.08" height="54" as="geometry" />
        </mxCell>
        <mxCell id="NEgBLdi5jCg0mNSVGGYL-60" value="Network ACL" style="text;html=1;align=center;verticalAlign=middle;whiteSpace=wrap;rounded=0;" vertex="1" parent="1">
          <mxGeometry x="220.67" y="472" width="79.99" height="30" as="geometry" />
        </mxCell>
        <mxCell id="NEgBLdi5jCg0mNSVGGYL-61" value="Network ACL" style="text;html=1;align=center;verticalAlign=middle;whiteSpace=wrap;rounded=0;" vertex="1" parent="1">
          <mxGeometry x="860" y="472" width="79.99" height="30" as="geometry" />
        </mxCell>
        <mxCell id="NEgBLdi5jCg0mNSVGGYL-62" value="Internet Gateway" style="text;html=1;align=center;verticalAlign=middle;whiteSpace=wrap;rounded=0;" vertex="1" parent="1">
          <mxGeometry x="535.4100000000001" y="590" width="89.18" height="30" as="geometry" />
        </mxCell>
        <mxCell id="NEgBLdi5jCg0mNSVGGYL-63" value="Route Table" style="text;html=1;align=center;verticalAlign=middle;whiteSpace=wrap;rounded=0;" vertex="1" parent="1">
          <mxGeometry x="540" y="370" width="80" height="30" as="geometry" />
        </mxCell>
        <mxCell id="NEgBLdi5jCg0mNSVGGYL-67" style="edgeStyle=none;curved=1;rounded=0;orthogonalLoop=1;jettySize=auto;html=1;fontSize=12;startSize=8;endSize=8;startArrow=none;startFill=0;endArrow=classic;endFill=1;fillColor=#d5e8d4;gradientColor=#97d077;strokeColor=#82b366;" edge="1" parent="1">
          <mxGeometry relative="1" as="geometry">
            <mxPoint x="293" y="440" as="sourcePoint" />
            <mxPoint x="545" y="442" as="targetPoint" />
          </mxGeometry>
        </mxCell>
        <mxCell id="NEgBLdi5jCg0mNSVGGYL-68" style="edgeStyle=none;curved=1;rounded=0;orthogonalLoop=1;jettySize=auto;html=1;fontSize=12;startSize=8;endSize=8;endArrow=none;startFill=1;startArrow=classic;fillColor=#d5e8d4;gradientColor=#97d077;strokeColor=#82b366;" edge="1" parent="1">
          <mxGeometry relative="1" as="geometry">
            <mxPoint x="565" y="510.0007970849465" as="sourcePoint" />
            <mxPoint x="565" y="480" as="targetPoint" />
          </mxGeometry>
        </mxCell>
        <mxCell id="NEgBLdi5jCg0mNSVGGYL-69" style="edgeStyle=none;curved=1;rounded=0;orthogonalLoop=1;jettySize=auto;html=1;fontSize=12;startSize=8;endSize=8;startArrow=classic;startFill=1;endArrow=none;fillColor=#d5e8d4;gradientColor=#97d077;strokeColor=#82b366;endFill=1;" edge="1" parent="1">
          <mxGeometry relative="1" as="geometry">
            <mxPoint x="614" y="430" as="sourcePoint" />
            <mxPoint x="865.62" y="431.77" as="targetPoint" />
          </mxGeometry>
        </mxCell>
        <mxCell id="NEgBLdi5jCg0mNSVGGYL-70" style="edgeStyle=none;curved=1;rounded=0;orthogonalLoop=1;jettySize=auto;html=1;fontSize=12;startSize=8;endSize=8;startArrow=none;startFill=0;endArrow=classic;fillColor=#f8cecc;gradientColor=#ea6b66;strokeColor=#b85450;endFill=1;" edge="1" parent="1">
          <mxGeometry relative="1" as="geometry">
            <mxPoint x="614" y="455" as="sourcePoint" />
            <mxPoint x="867" y="457" as="targetPoint" />
          </mxGeometry>
        </mxCell>
        <mxCell id="NEgBLdi5jCg0mNSVGGYL-75" style="edgeStyle=none;curved=1;rounded=0;orthogonalLoop=1;jettySize=auto;html=1;fontSize=12;startSize=8;endSize=8;" edge="1" parent="1" source="NEgBLdi5jCg0mNSVGGYL-74" target="NEgBLdi5jCg0mNSVGGYL-20">
          <mxGeometry relative="1" as="geometry" />
        </mxCell>
        <mxCell id="NEgBLdi5jCg0mNSVGGYL-76" value="&lt;font style=&quot;font-size: 15px;&quot;&gt;&amp;nbsp;Provisioning&amp;nbsp;&lt;/font&gt;" style="edgeLabel;html=1;align=center;verticalAlign=middle;resizable=0;points=[];fontSize=12;" vertex="1" connectable="0" parent="NEgBLdi5jCg0mNSVGGYL-75">
          <mxGeometry x="0.0915" y="-2" relative="1" as="geometry">
            <mxPoint x="-35" y="-1" as="offset" />
          </mxGeometry>
        </mxCell>
        <mxCell id="NEgBLdi5jCg0mNSVGGYL-81" value="" style="image;aspect=fixed;perimeter=ellipsePerimeter;html=1;align=center;shadow=0;dashed=0;spacingTop=3;image=img/lib/active_directory/internet_cloud.svg;" vertex="1" parent="1">
          <mxGeometry x="410.00000000000006" y="630" width="111.11" height="70" as="geometry" />
        </mxCell>
        <mxCell id="NEgBLdi5jCg0mNSVGGYL-85" value="&lt;font style=&quot;color: rgb(0, 0, 0); font-size: 15px;&quot;&gt;Internet&lt;/font&gt;" style="text;html=1;align=center;verticalAlign=middle;whiteSpace=wrap;rounded=0;" vertex="1" parent="1">
          <mxGeometry x="435.55" y="650" width="60" height="30" as="geometry" />
        </mxCell>
        <mxCell id="NEgBLdi5jCg0mNSVGGYL-88" style="edgeStyle=none;curved=1;rounded=0;orthogonalLoop=1;jettySize=auto;html=1;fontSize=12;startSize=8;endSize=8;fillColor=#d5e8d4;gradientColor=#97d077;strokeColor=#82b366;endArrow=none;startFill=1;startArrow=classic;" edge="1" parent="1">
          <mxGeometry relative="1" as="geometry">
            <mxPoint x="679.59" y="609" as="sourcePoint" />
            <mxPoint x="624.59" y="560" as="targetPoint" />
          </mxGeometry>
        </mxCell>
        <mxCell id="NEgBLdi5jCg0mNSVGGYL-90" value="" style="shape=image;imageAspect=0;aspect=fixed;verticalLabelPosition=bottom;verticalAlign=top;image=data:image/png,iVBORw0KGgoAAAANSUhEUgAAAMAAAADACAYAAABS3GwHAAABhGlDQ1BJQ0MgcHJvZmlsZQAAKJF9kT1Iw0AcxV9TpSIVByuoOGSogmAXFXGsVShChVArtOpgcumH0KQhSXFxFFwLDn4sVh1cnHV1cBUEwQ8QZwcnRRcp8X9JoUWMB8f9eHfvcfcOEOplplkdcUDTbTOdTIjZ3IoYekUIg+iHiDGZWcasJKXgO77uEeDrXYxn+Z/7c/SoeYsBAZE4zgzTJl4nnt60Dc77xBFWklXic+Jxky5I/Mh1xeM3zkWXBZ4ZMTPpOeIIsVhsY6WNWcnUiKeIo6qmU76Q9VjlvMVZK1dZ8578heG8vrzEdZrDSGIBi5CoIwVVbKAMGzFadVIspGk/4eMfcv0SuRRybYCRYx4VaJBdP/gf/O7WKkxOeEnhBND54jgfI0BoF2jUHOf72HEaJ0DwGbjSW/5KHZj5JL3W0qJHQO82cHHd0pQ94HIHGHgyZFN2pSBNoVAA3s/om3JA3y3Qver11tzH6QOQoa5SN8DBITBapOw1n3d3tff275lmfz/Yk3LPttuvigAAAAZiS0dEAP8A/wD/oL2nkwAAAAlwSFlzAAAN1wAADdcBQiibeAAAAAd0SU1FB+gHGRUhBDjtRysAABuESURBVHja7Z15mJTVne8/p/aqru6m6QUaGkFRdoIsCoqyGYK4MrlxyTWiMaMzc2P0zsRMjDNjZv7IzPXG5CYaZ+7cexPjFsA1DoqyIwqoLA7KFkBkp+kN6O7qrvU994/uhu6ml1rerarO93l4aKr6FPWe8/28v98571kEBklKWQBcD0wBRrf/KQdKgALAg5LSBUWBEHAGqAX2AX8CdgAfCSFCRvynQmfTVwLfBr4JXA24Vbsq6aAY8AnwJrBECFFtKwCklHOBx4AFgFO1l5KBSgDvA08LITZYCoCU8uvAPwHXqnZRskCbgCeFEOtMBaA91XkKuFe1gZIN9A7w34QQxwwHQEp5N/DvQJGqdyUb6RzwoBDitVQKOVIwvk9K+b+BJcr8SjZUMfCqlPI5KaVX1wggpQy298Dnq3pWygJtABYJIc5lDICUsgJYCVyp6lUpi/QZcKMQoiZtAKSURcB62h5mKSllm74AZgkhzqbcB5BS+oC3lfmVslgTgTf66hP01Qn+NTBH1aFSlmse8IuUUiAp5Z3AMlV3Sjmke4QQf+gXACnlUGAPaqhTKbd0DhgrhDjVXwr0S2V+pRxUMfB0nxGgfW7PalVXSjmsuZ0n0XUH4CNgpqojpRzWFiHEtRelQO1TmpX5lXJd10gpZ3X8w9XpjcdU3WSu+qjG7qY4+5vjnIpo1EY06mIapyMJaqMadVGNsAYIeVEi6hZQ5nVQ6haUeZxUeB2UexyUeRyMKXAxNujmEp9abqGDfgRsPF/1UspBwPFuQCj1IU3CznNxtjRE2dUUZ19TnN1NcWqiWidjy557WyKZ92W33237q9AlGBt0MT7oZmyBi+nFHqYXe/A6hGqU5BUHqoQQpzsAeAz4uaqXvnUolGBNTZQ1NVHW1Uapj2oXzCp6GVowAILu5VwOmFTo4esDvXy91Md1Azz4FBD96b8LIX4tVOe3d0U1ycrTUV49FmFFdZSGWKJvs6YCQdKQyJTL+ZyCOSUe7hoUYFGFnwEuh2rMi7VRCDFbtO/e0IDapQGAhIQt9TFeOx5mydEItREtNbPaBIKOcl6HYH6pjzsq/Cwq91OkYDh/fwMGCinlAtoWGed3etOc4DcHW3nxqwj1MS2DtMZ+EHT87HcIFlX4eWRYITOK1P0O+IaQUj4B/Cxfa+Cj2hjP7G/lreMR4mRo5iyAoOPvqYUeHhkW5NuDArhF3vYXHhdSyheAxfmV28NLX4V5Zn+Yz8/G+jBrbkMAUOV18v2qIA8NCTLQnXfp0fNCSvkxMD0frlYCrx+N8MTOFg42JTqZROY1BABBl+D7Q4P83YgiCp15A8IWIaU8DAzP9StdcyrGj/8zxI6GeC+mVBAgYKjXwZMjinmgMogr9zOjQ0JKWQ8MzNUr/LQuzo8/a2HD6VhXcygIeoUAJOMK3PyPkQO4tdSfywDUCSllhBwcAm2OS574rIXn/hRGk72YQ0HQJwQAt5f7eWFMKcW5OXwaEVJKmWtXtepkjL/4OMTh5kT/plMQ9AvBtCIPGycPwp+DT5dzCuszUcl3N4VYsLqJw81aWyvKbr3g8z+LHl7r1Pq9liO5z9WjXCqfq3u5C+9va4zyk0NnczIHypkIsOpkjPs+DFHdqvVwR5MqEmQYCXwOwZFrhlDhya3ZqFkfASTw1BdhblrV3Gb+Hu9oKhJkGgnCmmTd2UjORYCsnv7cEJHc+0GIFSdiFwzbcafr6Pie7wALkJ3uvJ07xrK9XJfXkikHiCQ+V49yqXwuUudybe/vCcVUH8Au2lGfYNp/NLLieCyFO6iKBJlEglx8LJCVACz5MsrM5U181ailYR4FQbrlxgTcCgCr9ezuCN/Z0EI4QR9mVRDoDYHPIZhX4lUAWKl/3B7mkc2tbQ+2emqovhoZBUEm5R4aEmSQJ/fWI2fFMKgm4dHNrfxmT+TiobyehvGSGQJUQ6RJl5tS6OHDaRUEnEIBYLbCCXjggxaWHIz1bo5UIEjZzPkNwbigm3VTy3Ly7m97ABIS7lrTwhuHYv2bTkGgOwSjC1ysn1pOpTd3t2KxbR9AAg990Npm/mRy8FT6BCnn9vnXJxgdyH3z2xqAH24O87t90dRMpyDQBYLRBS7WT8t989sWgCc/jfC/dkb7MbOCwAgIxuSR+W3ZB/jXXVG+vzGcQm6v+gR69QnGBV2su7qcQZ78WRtsKwC2VCeY88cQ53cXVBCYBsGYAhfrppflzZ3fdinQ6RbJHe+3Ek2kk9aodCiTdGhMgTsvzW8bAOIa3Pl+KydCMgMzKwjSgWBM0MW66aV5aX7bAPDDTRE2nkzoYGYFQSoQtKU9+Wt+W/QBlh2Ic/f7rTrn9vboExR6BJMGuBgZdDAi6GBEgZMhfgd+pyDgEgxwCxISmuJtZRuiGqfCGsdbE5xo1djXlGDnuVjbLtQ69wnGFzlZN6OMCk9+7xVqKQDVLZLxr4RoCBthZvMhGFYgWDDEw5xBbqYOdDGq0Ike68hPtGrsOBtjXU2UtbVRdjXGOwW11CGYUOhi7YxSKrxqo1xLAfjWijBvHIz3v4e+jSEYV+zkO5d5ua3Kw/gB5qQSNRGNP56MsPR4mI31URIyeQgmFLpYe4355t/fEmfdmTCHwwlcQnJVkZd5JV7Ld6GzDIDXDsS5c0U4yYMi7AVBoVtw/0gP9430MrXU2lWlp8IafzgW5rlDIb5qTfR5HbcN9vH7ycWUmLgH6IlIgr/ad4Z36lu7dI1AUuJy8JMRRfywqgirdlyxBID6sGT8Sy2cbuk+McveEFT6HfxgrJe/HO2jxGOvqcGahOXVEZ49FGJ9XbTLZmBTB7h55LIA9w7zm7qscVtjlJv/s46ajoNFenkI962KAEvHlWHFbGtLAPjO+2Fe2RdP48ggayAo8cITX/Pz8FgvviyYE38qrPF5YwwpYWTQxRUF5o/yfHouyoLP6jgbT/TaEe9c909eWsw/jSjOfQA2HE8w9/Vw36azCQRuJzw81sffT/Ix0KvO3EpWn5yLsmBHHefiWtL7DrmFYNfVlYwKmJtSmtoDkcATH0X7H5fvcwy8vazBzwkmljjZfHMRv7zar8yfgrY3RlnYYf7e2qSH5xoxKS3Zfc5UAF7fH2fLKS05s1oEgcsBP73Sx/bbi5hWps7kTUVbzkaZt62OMzEtrc233qptYcs5czffMi0Fimsw8cVW9jVo/a9SsigdKvcJlswr4IYh6rjkVLX5bJSF2+tojMuMtmGcUeRh89RBpnXWTYsA/+fzeJv5e6Hf6kgwrczJ1kWFyvzpmn9bu/n7bbO+I8HHjVHermvNrQgQisHlv22lOpTi3cGkSPCty9y8PLcAr8p4UtZHZ6LctK2OpkRPdZxeJBhT4GbX1YNNGRY1JQI8vytOdXMadwcTIsHiUV6WzFPmT0ebzkS5aVt921wmHZdl7gvFeKuuJTdSIE3CsztiKZjZPAj+ZqKX38/xo86OTl0bG6Lc+Gk9TTGJEdsw/upoc24A8O6hBPsbZIpmNh6C+0Z5ePoaH2qAM420pyHKzVvraU7IJHP71CHYdC7CJ43R7AfgV9viaZrZOAj+7FI3v53jV+ZPQx82RFm4tZ7mzmmPQRD8+lhTdgPwea3GuiNaBmbWH4LrBjtZOj+AU7k/Za2ri3LjJw00x0hzlCc1CF6vaeV4JJG9ADyzPa6DmfWDoNIvePUbATwq509Z6+ui3PppAy2JTIc6ky8X0yTPHW/OTgDCcXh9n6aTmTOHwO2AVxcEqAyoW3+qOtyS4Jtbz7SZ3+RdqV88FWqb2ZptALx3KMG5iNTRzJlB8NNpXq6rVGOd6ehHexo523l6g4kQnIwk+NDAs8kMA2DZ3kS/x2+aBcHUcic/nuJVTk5DJ8Mab52M9DKgYA4ES0+3ZBcAoRi8c1Dr48LNg8DjhOdv8Kmx/jS1oS5KQmLpIR1v1LQQl1kEwPIDCULR/i7cHAj+epKHiaXK/enqROdllhZBUBvVWNsQzh4AXt2b2lxwoyAo8wt+Ms2jXJyBitzCFsc1GZUG6Q5AXIO1hxMpXLhxEDx5lYdijxr1yUQzB3qSM6vBEKyoCyOzAYAd1RqNEdJaEKEnBJcUCv5yorr7Z6oJRS6uKnFbDkFNRDPkoG7dAVh3WKZ54fpC8NdXenCr1F8X/eDSQC91by4EGxoi9gdg/REtowURekBQ7BU8MF4tbNFLd1X5GNx5Iy2LINhwxuYAxDTYdEzL8MIzh+DB8S6KVO6vmzwOwYMjApafY7yhIaJ7P0BXAD49obUPf2IpBPePcyvX6qx7hvmw+uC+uqjGF80x+wKw/ZTU8cLTg2BqhYPxatxfd40Oupg8wGU5BFvORu0LwO5aqfOFpw7BvWNV7m9YX2Cor/0n6yDYbecIsLtWGnDhqUFw62UKAKN062BvaoeGGADBHjsDsLfWmPWhyUIwqsTBZcWq82uUxhW5GOJzWArBnuaEPQE42SRpaMWQpXHJQnDjCDXd2WjNKev+ZNhcCE5FEjTENPsBcD79wToI5lQpAIzW3HJPD21jLgR7muP2A+DLBgxfJN0fBFMHqdEfo9U2EoSlEOzTcUqEbo65sPGVNRCU+QWXFKn832hNKHbhElgKQXXEhilQbYi0e/Z6QDC5Qt39zZDXIRgVdPdhZuMhqI3aEIDTIUxZJN3b+1eUqLu/Wboi6OzHzMZCUKvjVim6AVATMm+7jJ7eH67SH9M01O9IwszGQWDLCFDTrIeZ04dgeJFKgUwDwOdI0szGQFAblfYDoL7F/D1jOr8/uEBFALNU6XemYGb9IbBlBOg4DNAqCIJqAqhpCjhTNbO+EIQTNowAUve0JrVyQTX/39SRoNTNbEA6ZCcAMu3ZZ1ouoObAmSa/M10z2w8C/SKAJiyFICGVMc2VxRDYDQDN4t3DogllSbPUFJMX6j7LITAgBbIGgta4CgFmKdT9ZJgshkA3AAo91kLQFFXGNDUCdG8zEyHQ83wH3T6qLGDtFnonm1QEMEsnWno5Cd4kCMp0JEA/AAp07NmnAcEJBYBpOtqS6L3NTICg3I4AlPp1yOcygOB4kzKmaQCEtL7bzGAI7BkBAtZul7GvTlPONEn7m7Q+2tp4CMrdNgSgvEDHnn0aEOysUSmQWXf/mrDWT1sbC0G514YADCkUGfXsM4XgRJOkvlVBYLS2N8STNKtxEFR4nfYDYEw5lu8Zs71aAWC0tjbEUjCrMRCMKnDZD4CxFSKjnr0eEKw/rPoBRmvtqVgPbWMuBOMLbQjAoGCnkSCLIFirADBU9RHJti4pkPkQDHA5qPTZsA9wPgpYuF3GjlOSM2FlVKO0+lQUTetjczITIBhfpO+0X10BGFeRfs9eDwgSGry9X82KM0pvHot2bRMLIBhXaGMAxldYt1NAx+vLdqs0yAidjUqWH4td3CYmQzAu6LQvANeNEJZul4GENV9pF3aoUNJNrx6JtC1F7KlNTIRgxkCPfQGYVAkD/FgKQTwBS/eoKKC3fncg0nebmQBB0CmYOsBtXwCcjvYogLUQPPtpom2BjpIu+qgmzid1if7bzGAIrit1637yp+4LYmZfmnrPXm8IDjZI3juoooBeenpXOPk2MxCC2WX6n/usOwBzLhPWLpJur9Bnt6rRID2071yC5cejqbWZQRBkBQCTh0CRD8shWHNIclp1hjPWT7a3XkgnLYQg6HQwrcRtfwCcDrhljEh5eEtvCBIa7DytAMhEG6vj/PFoNA0z6w/B/EEe3fN/QwAAuGtSOmbWH4JoXJk4XWkSHtvamoGZ9YXgziqvIddpCAA3jhaU+KyHYORAtVtcunpmT4StdfEMzawPBAGn4JbKLALA44Tbxlm7XcaIYsHoUgVAOvqqSeMfdrTqZObMIbhliIegS2QPAG1pkMDKPWMeu9aBQ/k/rdTn/o0hmmNSRzNnBsGdVT7DrtcwAL5+Rcf0aPMhmHWJg7+Yqk6MTEdP7gizsTpugJnTKxd0Cm6q9GQfAG4nLJ6G6XvGTBosePMuFy51XkbKevtIjH/+LEyf5zGbDMFdl3jbNuPNNgAAHr5W4HSYB8GkwYI1i12UBpSZU9Xeswnu+6Cl0zb39oDgkSv8hl63oQBcVgq3jet7eEsvCK4cLFhzn4syZf6UdSKksfC9EOci/Rx2bjIEcyvcfG2AK3sBAHj0OtHr8JZeEFw52MGa+5X501FdWDL/3RBHmrTeR2IsguDR0X7Dr99wAGaPhCsru7+qHwRThgjWftep0p40zX/jihB7z3bb58cGEFwadHHLEG/2AwDw6PV6rhW+UG5ypWDVfU4G+pWZU9XJkMbc5SG21yZ6bhOLIXj4Ch9OE4axTQHgv05p6w/oCcG0IYK1D6g7fzra3aAx/c0Qu+oTfZvVIggqfA4eHOkzpS5MAcDjhJ8tFBmP8nROe1Z+10mJuvOnrP84HGfmWyGOh2RyZrUAgr+f4KfQLXIHAGibIDdtGBlDMHWoYPUDDpX2pKiEhMe3RFi0ooVzUZmEma2BYESBk4cu95lWL6YBIAQ8fUtmQ53K/Onp4DmNeX8M8dRnkR6Os7UXBD+7MtD1GNZcAaBjRGjBKNKCYOoQwervOVTak4LiGjy1I8rEJSE2nuxlS3MbQfC1Eid3D/eaWkemTxh46hbR9T9NAoJrh8O6h5T5U9H7R+JMXhbi8c0RwvF+bjA2geDnkwtMn8AopJSmL5v6uxXwz2vl+bqjUz1eeK3t/Zkj4L0HHBSae2OgJiRZcVByolHic8M1VYJrqhzYfYLpjhqNxzdHWH0s3q0+L67bnuteJlfuovf7KgeIvj/37ku9LLk+aHp9WQJAXIMHX4Xfb+0bgoVjYNk9wlTzn2qW/O3qBK/t1ohoXb/bqFJ4+Con909ydj0V02JJYOWRBL/YEWXNsURXw2UBBGVewZ7biyn3OfIDgA69tB3+caXkUEPXCqkqhh/NETw8E1ND4qajkjtei3OquS/zSIq8sHiSk3smOJg+1LqocDIk+cO+OM/vjrHnjNaDmbMDgpevD3LPZdbcUSwFoEO7q2HP6baRosvLYMJgTJ/OvPpLye1L47TGkjHPhUYcMUBw93gHt1zhYPoQh+Hf+3CjZOXhBG8djLPmaIIE/ZjO5hDcVOXm3RsKLfOeLQCwWqu/lNy+pN38PTVUMo0sIOhpW4wze7hgyiAHkwYJygPpx4e4BnsbNLZVa2w7rbH2aII/ddzpUzGdTSEocgt2LSpmWIFDAWCVVh2ULOpu/gwg6F6uMii4fKBgWJGgMiioKoSAG5wOQZGn7RPORiQtMQjF4ESz5EijxpFGyaFzGq3xVMycXRC8OCvAvSO9lrZ/XgOw6qBk0R8StMZlH6NRmUPQa7le746ZmFknCFIyc+rl/mqMl3+9xvqJXHkLwHnz95XzKwgMgeDqchcbbyrEa4Nl2468Nf8rCVqjnccSzTnR/qJy/W0L0uPrKX6fpMt1+04pPfRKrtxAr2DZ3AJbmD8vAVh1QHL7S53u/FJBYBYEDgGvzC5gRNA+tssrAFYekNz+skY4bt2J9vkMwVNXBbixym0rT+QNAKsOSBa9pBGO9dBQCgLDIfjBeC+PTfTazhd50Qleub/d/HF6nXPUc8dQdYz16Bjfe4WHF+YEbDmPypEX5n9RXpgRaeE5xvkYCW67xM3vZgVsO4kwpyPARebv846uIoHekWDOUBfvLSzAZ+NdKnM2Arz3J8miF2SnnB/Lj3DNp0gwq9LF298I2Nr8ORsBdp6Cmc9phGLp3NFVJMg0Etw63M2y+X78Lvtvz51zEUBKWLxUEopaez5BvkaCB8Z4eHNBICvMn5MArNwPn5/M1MwKgnQgeHyyl/83x59VO3PnHABrD0idzKwgSBYCp4BfXuvjX2Z4ybYzSVy5BsDhhvYGEp3+RrTlRqJTA4pOjSxk19czLtfL++d/bv/ldMr1+n16+Nwu3y2F75N0OSjzOXh5vo8Fl2SnlXIuAnicet/RVSTordyMQU523FWQtebPSQAmDzXCzAqC7uUeGu/mgz8LMCyY3Qex5RwAiybQdVfhbIGA7ICgyCNYssDPv8/1XYi2CgD76PIyeODqvjaAsikE0v4Q3HKpi933FHD3qNzpOubkg7DWGMz7N/j4SHKbb130flvNGFCODB56WfewrKJA8OvZ3pwyfmcAIoAnFyF45C347aeyy41MQZAaBIvHOvnlbC+lvpw8dDkipJT1wEByVFuPwd8ul2w4pCBIBYIpFQ7+5/Uebrgkp89brhNSysPAcHJca/bDD5dLPj+lIOgLguFFgieu9vDnE12mb1RrgQ4JKeUWYAZ5oIQGv9vath3jyUYFQefXhxQK/mGGm+9NdOHOn4Wym4WU8gVgMXmkSBxe2QG/+lDyRXV+QzCyRPDwZDcPfc1FwE2+6XkhpXwC+Bl5qo++gqfWS97d13nUL/chmFnl4NGpLr45ymnKaYw21eNCSrkAeJ88194a+M0mybKdUN+SmxAUeuA7E1z8YIqLsaUCJeYLKWUAOEMODoWm20/YchRe2i5ZulPSGMluCPxuuGGEgzvGOPkvo50UuFUbtysKlLRVq5QfAtepOumqcBze3StZ9jmsPShpaMkOCIIeuOlyJ3eOdXDTSCd+l2rLHvSBEGJOBwB/A/xC1UnfOtQAaw5I1hyENQclZ1rtAUHQCzOGOphZJbhumINZlzhyYp6OwXpUCPFMBwCDgOPk4PoAI1Ol7Sdg+wnJF6cle2tg12lJXYuxEJT6YVyFYGyZYHyFYGaVgysHi3zuyKajOFAlhDh9oZmkfAe4WdVNZqppbgPhywaoboa6kKQ2JDkdgppQ27+7nj12weQBj6DUD2UFbfNvSgNQFoDBQcGYMhhf4aA8oOpYBy0XQtzW9T4l5RxgvaobpTzQLCHEh90DruoMK+VN57fjH90fev9U1Y9SDksCT3Z+oQsAQoh1wFJVT0o5qpeFEBvpZUyiIw2qBPYCxaq+lHJIZ4GxQojqXiNAexQ4BTyo6kspx/Tn3c3fIwDtELwG/JuqM6Uc0TNCiDd69HqvvQUpvcAKYJ6qP6Us1hrgZiFENCUA2iEoBDYAU1Q9KmWhPqdtzP9cb7/Q59ofIUQTsBD4TNWlUpZpOzC/L/P3C0A7BDXALGCVqlOlLNE6YF67d8kIgHYImoHbgOdU3SrZXM8CC4UQjUl5O9VPl1LeAfxf1HMCJXvpLPA9IcSbqRRKef1/+xDpGOAlum6ep6Rkld4BJqZq/rQAaIegWgixmLYh0g9V/StZpI3AbCHErUKI42l5WY9vIaWcBfwIuBG1qEbJWMWB94Cfd0xpzkS6riOSUlYA3wa+CUwHvKq9lHRQBPgYeBNYmszojiUAdIMhAMwEpgKj2vsNg4ABQBC1C4VSV0WB5vbO7GlgH7CftvH8TUKIFiP+0/8PfrwyZool5f4AAAAASUVORK5CYII=;" vertex="1" parent="1">
          <mxGeometry x="730" y="620" width="40" height="40" as="geometry" />
        </mxCell>
      </root>
    </mxGraphModel>
  </diagram>
</mxfile>
